<?xml version="1.0" encoding="utf-8"?>
<!-- Generator: Adobe Illustrator 22.0.0, SVG Export Plug-In . SVG Version: 6.00 Build 0)  -->
<svg version="1.1" id="katman_1" xmlns="http://www.w3.org/2000/svg" xmlns:xlink="http://www.w3.org/1999/xlink" x="0px" y="0px"
	 viewBox="0 0 128 128" style="enable-background:new 0 0 128 128;" xml:space="preserve">
<style type="text/css">
	.st0{display:none;}
	.st1{display:inline;}
	.st2{fill:#1D1D1D;}
	.st3{fill:#46CCA9;stroke:#2B6D58;stroke-width:2;stroke-miterlimit:10;}
</style>
<text transform="matrix(1 0 0 1 -78.0962 158.1761)" style="display:none;enable-background:new    ; font-family:'FriscoSerif-Regular'; font-size:36px;">F</text>
<text transform="matrix(1 0 0 1 -67.5616 53.0744)" style="display:none;enable-background:new    ; font-family:'Deskomora'; font-size:36px;">F</text>
<text transform="matrix(1 0 0 1 -74.2976 124.5826)" style="display:none;enable-background:new    ; font-family:'Barkentina'; font-size:41.3584px;">F</text>
<text transform="matrix(1 0 0 1 -74.1141 88.8061)" style="display:none;enable-background:new    ; font-family:'Oldenburg-Regular'; font-size:41.3584px;">F</text>
<g class="st0">
	<g class="st1">
		<g>
			<g>
				<path class="st2" d="M-63.8,167c0.2,0,0.2,0,0.5,0.1c0.8,0.4,1.7,1.3,1.9,2.3c0.1,1-0.3,2.2-1.8,3.5c-0.1,0-0.3,0.2-0.4,0.3
					c-3,0.1-6,0.8-8.4,2.2c-0.9,0.5-1.8,1.2-2.5,2c-1,1.1-1.8,2.4-2.3,3.8c0,0-0.9,1.7-1.4,4.6c-0.5,2.8-0.5,6.7-0.2,9.9
					c0.1,1.4,0.3,2.5,0.4,3.5c0.1,0.9,0.2,1.7,0.2,2.2c0,1.1-0.2,1.5-0.6,1.3c-0.7-0.4-2.2-3-3.3-6.4c0.1,0.4-1.4-3.7-1.6-8.4
					c-0.2-2.3,0-4.7,0.3-6.6c0.1-0.5,0.2-0.9,0.3-1.3c0.1-0.4,0.2-0.7,0.3-1c0.2-0.5,0.3-0.8,0.3-0.8c0.8-1.8,1.9-3.5,3.3-5
					c1.1-1.3,2.5-2.3,3.9-3.1C-71.6,167.9-67.6,167.1-63.8,167z"/>
			</g>
		</g>
	</g>
	<g class="st1">
		<g>
			<g>
				<path class="st2" d="M-82.9,186.2c0,0,0-0.1,0-0.2c0.2-0.5,0.7-1.1,1.6-1.7c0.8-0.6,2-1.1,3.1-1.7l0.2-0.1c0,0,0.1,0.3,0.7,0.7
					c0.3,0.2,0.7,0.4,1.3,0.7c0.6,0.2,1.3,0.5,2,0.8c1.4,0.5,2.6,0.8,3.5,0.9c0.9,0.1,1.6,0.1,1.6,0.1s0.4,0.2,1.1,0.4
					c0.7,0.3,1.5,0.6,2.3,1c2.5,1.1,1.7,2.6,0.2,3.4c0.1,0.1-0.8,0.4-1.8,0.7c-0.9,0.3-2,0.6-2,0.6s-0.9,0-2.3-0.2
					c-1.4-0.2-3.2-0.7-4.8-1.2c-0.8-0.3-1.5-0.6-2.3-0.9c-0.8-0.3-1.6-0.8-2.3-1.2c-0.7-0.5-1.3-1-1.6-1.4
					C-82.7,186.6-82.9,186.3-82.9,186.2z"/>
			</g>
		</g>
	</g>
</g>
<path id="FinCha_Favicon" class="st3" d="M124.7,90L82.1,16.5C74,2.6,54,2.6,45.9,16.5L3.5,90c-8.1,13.9,2,31.3,18,31.3h85
	C122.7,121.3,132.6,103.9,124.7,90z M61.3,90.2c-9.9-3.2-20.2,3.4-21.4,13.5c0,0.6-0.2,1.4-0.2,2c-0.2,2.4-3.6,2.6-4.2,0.2
	C31,83.3,29.2,38.5,77.9,26.8c4.6-1.2,9.3,2,10.1,6.9l0,0c0.6,4.2-2.2,8.3-6.3,9.1c-5,1-12.1,3.4-18.8,9.1c-9.9,8.3-6,24.3,6.2,27.3
	c0.6,0.1,1.2,0.2,1.8,0.2c3.2,0.2,6.8,0.6,10.8,0.8c1.8,0,3.6,1,4.6,2.4c2,2.6,1.4,6.7-1.6,8.5l0,0c-2,1.3-4.4,2-6.9,1.9
	C73.6,92.7,66.5,92,61.3,90.2z"/>
</svg>
